<svg xmlns="http://www.w3.org/2000/svg" fill="none" viewBox="0 0 400 400"><circle cx="200" cy="200" r="150" fill="black"/><path fill="white" d="M101.85 173.6l38.45 23.75v8.6l-37.95 23.75-4.55-6.2 35.3-21.8-35.3-21.75 4.05-6.35z"/><path fill="#e5b786" d="M164.09 220h-5.76L170 203.32l-10.23-14.91h5.97l7.32 11.76 7.41-11.76h5.76l-10.2 14.7L187.67 220h-6.18l-8.64-13.56-8.76 13.56zm59.377-31.59l-14.22 14.22 15.87 17.37h-6.63l-15.54-17.25 13.98-14.34h6.54zm-21.09-13.35V220h-5.04v-44.31l5.04-.63zm44.886 41.28c1.58 0 3.05-.26 4.41-.78 1.38-.52 2.65-1.18 3.81-1.98l2.46 3.3c-1.38 1.18-3.04 2.11-4.98 2.79-1.94.68-3.84 1.02-5.7 1.02-3.14 0-5.82-.67-8.04-2.01-2.2-1.36-3.88-3.26-5.04-5.7-1.16-2.46-1.74-5.34-1.74-8.64 0-3.16.58-5.99 1.74-8.49 1.18-2.52 2.87-4.5 5.07-5.94 2.22-1.44 4.91-2.16 8.07-2.16 2.02 0 3.91.31 5.67.93 1.78.6 3.41 1.51 4.89 2.73l-2.46 3.36c-1.34-.94-2.69-1.64-4.05-2.1-1.34-.48-2.71-.72-4.11-.72-2.72 0-4.96 1.02-6.72 3.06-1.76 2.04-2.64 5.15-2.64 9.33 0 2.8.4 5.09 1.2 6.87.82 1.76 1.93 3.06 3.33 3.9 1.42.82 3.03 1.23 4.83 1.23zm40.597-41.28l5.04.63V220h-4.41l-.48-4.17c-1.18 1.68-2.54 2.91-4.08 3.69-1.52.78-3.15 1.17-4.89 1.17-2.74 0-5-.69-6.78-2.07-1.78-1.38-3.1-3.3-3.96-5.76-.86-2.48-1.29-5.35-1.29-8.61 0-3.16.49-5.98 1.47-8.46.98-2.5 2.39-4.46 4.23-5.88 1.86-1.44 4.09-2.16 6.69-2.16 1.82 0 3.42.32 4.8.96 1.38.62 2.6 1.54 3.66 2.76v-16.41zm-7.14 16.74c-2.64 0-4.67 1.03-6.09 3.09-1.42 2.06-2.13 5.18-2.13 9.36 0 2.72.29 5 .87 6.84.58 1.84 1.43 3.22 2.55 4.14 1.14.92 2.53 1.38 4.17 1.38 1.8 0 3.33-.51 4.59-1.53 1.28-1.02 2.34-2.17 3.18-3.45v-15.78c-.86-1.28-1.9-2.27-3.12-2.97-1.22-.72-2.56-1.08-4.02-1.08z"/></svg>